<?xml version="1.0" encoding="UTF-8" standalone="no"?>
<svg
   xmlns:dc="http://purl.org/dc/elements/1.1/"
   xmlns:cc="http://creativecommons.org/ns#"
   xmlns:rdf="http://www.w3.org/1999/02/22-rdf-syntax-ns#"
   xmlns:svg="http://www.w3.org/2000/svg"
   xmlns="http://www.w3.org/2000/svg"
   viewBox="0 0 22.200001 59.950001"
   height="59.950001"
   width="22.200001"
   xml:space="preserve"
   version="1.1"
   id="svg2"><metadata
     id="metadata8"><rdf:RDF><cc:Work
         rdf:about=""><dc:format>image/svg+xml</dc:format><dc:type
           rdf:resource="http://purl.org/dc/dcmitype/StillImage" /></cc:Work></rdf:RDF></metadata><defs
     id="defs6"><clipPath
       id="clipPath18"
       clipPathUnits="userSpaceOnUse"><path
         id="path20"
         d="m 0,0 177.613,0 0,479.57 L 0,479.57 0,0 Z" /></clipPath><clipPath
       id="clipPath40"
       clipPathUnits="userSpaceOnUse"><path
         id="path42"
         d="m 131.871,444.238 5.195,6.367 3.575,0 0,-33.457 21.504,0 1.992,-1.992 1.992,0 3.379,3.387 c 3.398,1.398 5.39,-4.98 5.39,-4.98 l 0,-2.383 c 0,0 -1.992,-6.375 -5.39,-4.989 l -3.379,3.387 -1.992,0 -1.992,-1.98 -21.504,0 0,-33.465 -3.575,0 -5.195,6.375 0,63.73" /></clipPath><linearGradient
       id="linearGradient46"
       spreadMethod="pad"
       gradientTransform="matrix(43.0274,0,0,-116.475,133.433,470.605)"
       gradientUnits="userSpaceOnUse"
       y2="0"
       x2="1"
       y1="0"
       x1="0"><stop
         id="stop48"
         offset="0"
         style="stop-opacity:1;stop-color:#333333" /><stop
         id="stop50"
         offset="1"
         style="stop-opacity:1;stop-color:#ffffff" /></linearGradient><clipPath
       id="clipPath58"
       clipPathUnits="userSpaceOnUse"><path
         id="path60"
         d="M 0,0 0,480 178,480 178,0 0,0 Z" /></clipPath><clipPath
       id="clipPath72"
       clipPathUnits="userSpaceOnUse"><path
         id="path74"
         d="m 131.871,444.238 5.195,6.367 3.575,0 0,-33.457 21.504,0 1.992,-1.992 1.992,0 3.379,3.387 c 3.398,1.398 5.39,-4.98 5.39,-4.98 l 0,-2.383 c 0,0 -1.992,-6.375 -5.39,-4.989 l -3.379,3.387 -1.992,0 -1.992,-1.98 -21.504,0 0,-33.465 -3.575,0 -5.195,6.375 0,63.73" /></clipPath><linearGradient
       id="linearGradient78"
       spreadMethod="pad"
       gradientTransform="matrix(43.0274,0,0,-116.475,133.433,470.605)"
       gradientUnits="userSpaceOnUse"
       y2="0"
       x2="1"
       y1="0"
       x1="0"><stop
         id="stop80"
         offset="0"
         style="stop-opacity:1;stop-color:#333333" /><stop
         id="stop82"
         offset="1"
         style="stop-opacity:1;stop-color:#ffffff" /></linearGradient><clipPath
       id="clipPath90"
       clipPathUnits="userSpaceOnUse"><path
         id="path92"
         d="M 0,0 0,480 178,480 178,0 0,0 Z" /></clipPath><clipPath
       id="clipPath104"
       clipPathUnits="userSpaceOnUse"><path
         id="path106"
         d="m 131.871,340.984 5.195,6.379 3.575,0 0,-33.468 21.504,0 1.992,-1.993 1.992,0 3.379,3.399 c 3.398,1.387 5.39,-4.988 5.39,-4.988 l 0,-2.383 c 0,0 -1.992,-6.379 -5.39,-4.981 l -3.379,3.391 -1.992,0 -1.992,-1.996 -21.504,0 0,-33.457 -3.575,0 -5.195,6.371 0,63.726" /></clipPath><linearGradient
       id="linearGradient110"
       spreadMethod="pad"
       gradientTransform="matrix(43.0274,0,0,-116.475,133.433,367.363)"
       gradientUnits="userSpaceOnUse"
       y2="0"
       x2="1"
       y1="0"
       x1="0"><stop
         id="stop112"
         offset="0"
         style="stop-opacity:1;stop-color:#333333" /><stop
         id="stop114"
         offset="1"
         style="stop-opacity:1;stop-color:#ffffff" /></linearGradient><clipPath
       id="clipPath122"
       clipPathUnits="userSpaceOnUse"><path
         id="path124"
         d="M 0,0 0,480 178,480 178,0 0,0 Z" /></clipPath><clipPath
       id="clipPath136"
       clipPathUnits="userSpaceOnUse"><path
         id="path138"
         d="m 131.871,340.984 5.195,6.379 3.575,0 0,-33.468 21.504,0 1.992,-1.993 1.992,0 3.379,3.399 c 3.398,1.387 5.39,-4.988 5.39,-4.988 l 0,-2.383 c 0,0 -1.992,-6.379 -5.39,-4.981 l -3.379,3.391 -1.992,0 -1.992,-1.996 -21.504,0 0,-33.457 -3.575,0 -5.195,6.371 0,63.726" /></clipPath><linearGradient
       id="linearGradient142"
       spreadMethod="pad"
       gradientTransform="matrix(43.0274,0,0,-116.475,133.433,367.363)"
       gradientUnits="userSpaceOnUse"
       y2="0"
       x2="1"
       y1="0"
       x1="0"><stop
         id="stop144"
         offset="0"
         style="stop-opacity:1;stop-color:#333333" /><stop
         id="stop146"
         offset="1"
         style="stop-opacity:1;stop-color:#ffffff" /></linearGradient><clipPath
       id="clipPath154"
       clipPathUnits="userSpaceOnUse"><path
         id="path156"
         d="M 0,0 0,480 178,480 178,0 0,0 Z" /></clipPath></defs><g
     transform="matrix(1.25,0,0,-1.25,0,59.95)"
     id="g10"><g
       transform="scale(0.1,0.1)"
       id="g12"><g
         id="g14"><g
           clip-path="url(#clipPath18)"
           id="g16"><path
             id="path22"
             style="fill:#ffffff;fill-opacity:1;fill-rule:nonzero;stroke:none"
             d="m 45.5352,225.82 62.9961,0 0,224.004 -62.9961,0 0,-224.004 z" /><path
             id="path24"
             style="fill:none;stroke:#02709f;stroke-width:8.00002956;stroke-linecap:butt;stroke-linejoin:miter;stroke-miterlimit:1;stroke-dasharray:none;stroke-opacity:1"
             d="m 45.5352,225.82 62.9961,0 0,224.004 -62.9961,0 0,-224.004 z" /><path
             id="path26"
             style="fill:#ffffff;fill-opacity:1;fill-rule:nonzero;stroke:none"
             d="M 3.97656,3.57422 45.5352,227.566 l 62.9958,0 37.188,-223.99178" /><path
             id="path28"
             style="fill:none;stroke:#02709f;stroke-width:8.00002956;stroke-linecap:butt;stroke-linejoin:miter;stroke-miterlimit:1;stroke-dasharray:none;stroke-opacity:1"
             d="M 3.97656,3.57422 45.5352,227.566 l 62.9958,0 37.188,-223.99178" /><path
             id="path30"
             style="fill:none;stroke:#02709f;stroke-width:8.00002956;stroke-linecap:butt;stroke-linejoin:miter;stroke-miterlimit:1;stroke-dasharray:none;stroke-opacity:1"
             d="M 1.78906,3.57422 131.285,68.3203 26.2891,127.82 l 87.4959,54.25 -64.7537,43.75 57.7617,77 -59.5078,49.004 61.2458,54.25 -62.9958,42" /><path
             id="path32"
             style="fill:none;stroke:#02709f;stroke-width:8.00002956;stroke-linecap:butt;stroke-linejoin:miter;stroke-miterlimit:1;stroke-dasharray:none;stroke-opacity:1"
             d="M 146.773,3.57422 21.7969,68.3203 126.793,127.82 l -87.4961,54.25 64.7461,43.75 -57.7461,77 59.5001,49.004 -61.2462,54.25 63.0042,42" /><path
             id="path34"
             style="fill:none;stroke:#02709f;stroke-width:8.00002956;stroke-linecap:butt;stroke-linejoin:miter;stroke-miterlimit:1;stroke-dasharray:none;stroke-opacity:1"
             d="m 104.797,449.824 -57.7579,0 14.4062,27.91 28.3008,0 15.0509,-27.91 z" /></g></g><g
         id="g36"><g
           clip-path="url(#clipPath40)"
           id="g38"><path
             id="path44"
             style="fill:#333333;fill-opacity:1;fill-rule:nonzero;stroke:none"
             d="m 131.871,444.238 5.195,6.367 3.575,0 0,-33.457 21.504,0 1.992,-1.992 1.992,0 3.379,3.387 c 3.398,1.398 5.39,-4.98 5.39,-4.98 l 0,-2.383 c 0,0 -1.992,-6.375 -5.39,-4.989 l -3.379,3.387 -1.992,0 -1.992,-1.98 -21.504,0 0,-33.465 -3.575,0 -5.195,6.375 0,63.73" /><path
             id="path52"
             style="fill:url(#linearGradient46);fill-opacity:1;fill-rule:nonzero;stroke:none"
             d="m 131.871,444.238 5.195,6.367 3.575,0 0,-33.457 21.504,0 1.992,-1.992 1.992,0 3.379,3.387 c 3.398,1.398 5.39,-4.98 5.39,-4.98 l 0,-2.383 c 0,0 -1.992,-6.375 -5.39,-4.989 l -3.379,3.387 -1.992,0 -1.992,-1.98 -21.504,0 0,-33.465 -3.575,0 -5.195,6.375 0,63.73" /></g></g><g
         id="g54"><g
           clip-path="url(#clipPath58)"
           id="g56"><path
             id="path62"
             style="fill:none;stroke:#000000;stroke-width:8.00002956;stroke-linecap:butt;stroke-linejoin:miter;stroke-miterlimit:1;stroke-dasharray:none;stroke-opacity:1"
             d="m 131.871,444.238 5.195,6.367 3.575,0 0,-33.457 21.504,0 1.992,-1.992 1.992,0 3.379,3.387 c 3.398,1.398 5.39,-4.98 5.39,-4.98 l 0,-2.383 c 0,0 -1.992,-6.375 -5.39,-4.989 l -3.379,3.387 -1.992,0 -1.992,-1.98 -21.504,0 0,-33.465 -3.575,0 -5.195,6.375 0,63.73 z" /><path
             id="path64"
             style="fill:#b2b2b2;fill-opacity:1;fill-rule:nonzero;stroke:none"
             d="m 131.871,380.508 -11.152,0 c -5.977,6.777 -5.176,20.711 -5.176,20.711 l -11.551,0 0,22.304 11.551,0 c 0,0 -0.801,13.938 5.176,20.715 l 11.152,0 0,-63.73" /><path
             id="path66"
             style="fill:none;stroke:#000000;stroke-width:8.00002956;stroke-linecap:butt;stroke-linejoin:miter;stroke-miterlimit:1;stroke-dasharray:none;stroke-opacity:1"
             d="m 131.871,380.508 -11.152,0 c -5.977,6.777 -5.176,20.711 -5.176,20.711 l -11.551,0 0,22.304 11.551,0 c 0,0 -0.801,13.938 5.176,20.715 l 11.152,0 0,-63.73 z" /></g></g><g
         id="g68"><g
           clip-path="url(#clipPath72)"
           id="g70"><path
             id="path76"
             style="fill:#333333;fill-opacity:1;fill-rule:nonzero;stroke:none"
             d="m 131.871,444.238 5.195,6.367 3.575,0 0,-33.457 21.504,0 1.992,-1.992 1.992,0 3.379,3.387 c 3.398,1.398 5.39,-4.98 5.39,-4.98 l 0,-2.383 c 0,0 -1.992,-6.375 -5.39,-4.989 l -3.379,3.387 -1.992,0 -1.992,-1.98 -21.504,0 0,-33.465 -3.575,0 -5.195,6.375 0,63.73" /><path
             id="path84"
             style="fill:url(#linearGradient78);fill-opacity:1;fill-rule:nonzero;stroke:none"
             d="m 131.871,444.238 5.195,6.367 3.575,0 0,-33.457 21.504,0 1.992,-1.992 1.992,0 3.379,3.387 c 3.398,1.398 5.39,-4.98 5.39,-4.98 l 0,-2.383 c 0,0 -1.992,-6.375 -5.39,-4.989 l -3.379,3.387 -1.992,0 -1.992,-1.98 -21.504,0 0,-33.465 -3.575,0 -5.195,6.375 0,63.73" /></g></g><g
         id="g86"><g
           clip-path="url(#clipPath90)"
           id="g88"><path
             id="path94"
             style="fill:none;stroke:#02709f;stroke-width:8.00002956;stroke-linecap:butt;stroke-linejoin:miter;stroke-miterlimit:1;stroke-dasharray:none;stroke-opacity:1"
             d="m 131.871,444.238 5.195,6.367 3.575,0 0,-33.457 21.504,0 1.992,-1.992 1.992,0 3.379,3.387 c 3.398,1.398 5.39,-4.98 5.39,-4.98 l 0,-2.383 c 0,0 -1.992,-6.375 -5.39,-4.989 l -3.379,3.387 -1.992,0 -1.992,-1.98 -21.504,0 0,-33.465 -3.575,0 -5.195,6.375 0,63.73 z" /><path
             id="path96"
             style="fill:#b2b2b2;fill-opacity:1;fill-rule:nonzero;stroke:none"
             d="m 131.871,380.508 -11.152,0 c -5.977,6.777 -5.176,20.711 -5.176,20.711 l -11.551,0 0,22.304 11.551,0 c 0,0 -0.801,13.938 5.176,20.715 l 11.152,0 0,-63.73" /><path
             id="path98"
             style="fill:none;stroke:#02709f;stroke-width:8.00002956;stroke-linecap:butt;stroke-linejoin:miter;stroke-miterlimit:1;stroke-dasharray:none;stroke-opacity:1"
             d="m 131.871,380.508 -11.152,0 c -5.977,6.777 -5.176,20.711 -5.176,20.711 l -11.551,0 0,22.304 11.551,0 c 0,0 -0.801,13.938 5.176,20.715 l 11.152,0 0,-63.73 z" /></g></g><g
         id="g100"><g
           clip-path="url(#clipPath104)"
           id="g102"><path
             id="path108"
             style="fill:#333333;fill-opacity:1;fill-rule:nonzero;stroke:none"
             d="m 131.871,340.984 5.195,6.379 3.575,0 0,-33.468 21.504,0 1.992,-1.993 1.992,0 3.379,3.399 c 3.398,1.387 5.39,-4.988 5.39,-4.988 l 0,-2.383 c 0,0 -1.992,-6.379 -5.39,-4.981 l -3.379,3.391 -1.992,0 -1.992,-1.996 -21.504,0 0,-33.457 -3.575,0 -5.195,6.371 0,63.726" /><path
             id="path116"
             style="fill:url(#linearGradient110);fill-opacity:1;fill-rule:nonzero;stroke:none"
             d="m 131.871,340.984 5.195,6.379 3.575,0 0,-33.468 21.504,0 1.992,-1.993 1.992,0 3.379,3.399 c 3.398,1.387 5.39,-4.988 5.39,-4.988 l 0,-2.383 c 0,0 -1.992,-6.379 -5.39,-4.981 l -3.379,3.391 -1.992,0 -1.992,-1.996 -21.504,0 0,-33.457 -3.575,0 -5.195,6.371 0,63.726" /></g></g><g
         id="g118"><g
           clip-path="url(#clipPath122)"
           id="g120"><path
             id="path126"
             style="fill:none;stroke:#000000;stroke-width:8.00002956;stroke-linecap:butt;stroke-linejoin:miter;stroke-miterlimit:1;stroke-dasharray:none;stroke-opacity:1"
             d="m 131.871,340.984 5.195,6.379 3.575,0 0,-33.468 21.504,0 1.992,-1.993 1.992,0 3.379,3.399 c 3.398,1.387 5.39,-4.988 5.39,-4.988 l 0,-2.383 c 0,0 -1.992,-6.379 -5.39,-4.981 l -3.379,3.391 -1.992,0 -1.992,-1.996 -21.504,0 0,-33.457 -3.575,0 -5.195,6.371 0,63.726 z" /><path
             id="path128"
             style="fill:#b2b2b2;fill-opacity:1;fill-rule:nonzero;stroke:none"
             d="m 131.871,277.258 -11.152,0 c -5.977,6.773 -5.176,20.711 -5.176,20.711 l -11.551,0 0,22.304 11.551,0 c 0,0 -0.801,13.938 5.176,20.711 l 11.152,0 0,-63.726" /><path
             id="path130"
             style="fill:none;stroke:#000000;stroke-width:8.00002956;stroke-linecap:butt;stroke-linejoin:miter;stroke-miterlimit:1;stroke-dasharray:none;stroke-opacity:1"
             d="m 131.871,277.258 -11.152,0 c -5.977,6.773 -5.176,20.711 -5.176,20.711 l -11.551,0 0,22.304 11.551,0 c 0,0 -0.801,13.938 5.176,20.711 l 11.152,0 0,-63.726 z" /></g></g><g
         id="g132"><g
           clip-path="url(#clipPath136)"
           id="g134"><path
             id="path140"
             style="fill:#333333;fill-opacity:1;fill-rule:nonzero;stroke:none"
             d="m 131.871,340.984 5.195,6.379 3.575,0 0,-33.468 21.504,0 1.992,-1.993 1.992,0 3.379,3.399 c 3.398,1.387 5.39,-4.988 5.39,-4.988 l 0,-2.383 c 0,0 -1.992,-6.379 -5.39,-4.981 l -3.379,3.391 -1.992,0 -1.992,-1.996 -21.504,0 0,-33.457 -3.575,0 -5.195,6.371 0,63.726" /><path
             id="path148"
             style="fill:url(#linearGradient142);fill-opacity:1;fill-rule:nonzero;stroke:none"
             d="m 131.871,340.984 5.195,6.379 3.575,0 0,-33.468 21.504,0 1.992,-1.993 1.992,0 3.379,3.399 c 3.398,1.387 5.39,-4.988 5.39,-4.988 l 0,-2.383 c 0,0 -1.992,-6.379 -5.39,-4.981 l -3.379,3.391 -1.992,0 -1.992,-1.996 -21.504,0 0,-33.457 -3.575,0 -5.195,6.371 0,63.726" /></g></g><g
         id="g150"><g
           clip-path="url(#clipPath154)"
           id="g152"><path
             id="path158"
             style="fill:none;stroke:#02709f;stroke-width:8.00002956;stroke-linecap:butt;stroke-linejoin:miter;stroke-miterlimit:1;stroke-dasharray:none;stroke-opacity:1"
             d="m 131.871,340.984 5.195,6.379 3.575,0 0,-33.468 21.504,0 1.992,-1.993 1.992,0 3.379,3.399 c 3.398,1.387 5.39,-4.988 5.39,-4.988 l 0,-2.383 c 0,0 -1.992,-6.379 -5.39,-4.981 l -3.379,3.391 -1.992,0 -1.992,-1.996 -21.504,0 0,-33.457 -3.575,0 -5.195,6.371 0,63.726 z" /><path
             id="path160"
             style="fill:#b2b2b2;fill-opacity:1;fill-rule:nonzero;stroke:none"
             d="m 131.871,277.258 -11.152,0 c -5.977,6.773 -5.176,20.711 -5.176,20.711 l -11.551,0 0,22.304 11.551,0 c 0,0 -0.801,13.938 5.176,20.711 l 11.152,0 0,-63.726" /><path
             id="path162"
             style="fill:none;stroke:#02709f;stroke-width:8.00002956;stroke-linecap:butt;stroke-linejoin:miter;stroke-miterlimit:1;stroke-dasharray:none;stroke-opacity:1"
             d="m 131.871,277.258 -11.152,0 c -5.977,6.773 -5.176,20.711 -5.176,20.711 l -11.551,0 0,22.304 11.551,0 c 0,0 -0.801,13.938 5.176,20.711 l 11.152,0 0,-63.726 z" /></g></g></g></g></svg>