<?xml version="1.0" encoding="UTF-8" standalone="no"?>
<!DOCTYPE svg PUBLIC "-//W3C//DTD SVG 1.1//EN"
 "http://www.w3.org/Graphics/SVG/1.1/DTD/svg11.dtd">
<!-- Generated by graphviz version 2.38.0 (20140413.2041)
 -->
<!-- Title: Example network Pages: 1 -->
<svg width="134pt" height="328pt"
 viewBox="0.00 0.00 134.00 328.39" xmlns="http://www.w3.org/2000/svg" xmlns:xlink="http://www.w3.org/1999/xlink">
<g id="graph0" class="graph" transform="scale(1 1) rotate(0) translate(4 324.388)">
<title>Example network</title>
<polygon fill="white" stroke="none" points="-4,4 -4,-324.388 130,-324.388 130,4 -4,4"/>
<!-- Server -->
<g id="node1" class="node"><title>Server</title>
<polygon fill="none" stroke="black" points="54,-320.388 0,-320.388 0,-284.388 54,-284.388 54,-320.388"/>
<text text-anchor="middle" x="27" y="-298.688" font-family="Times,serif" font-size="14.00">Server</text>
</g>
<!-- LAN -->
<g id="node4" class="node"><title>LAN</title>
<ellipse fill="none" stroke="black" cx="63" cy="-218.49" rx="29.795" ry="29.795"/>
<text text-anchor="middle" x="63" y="-214.79" font-family="Times,serif" font-size="14.00">LAN</text>
</g>
<!-- Server&#45;&#45;LAN -->
<g id="edge1" class="edge"><title>Server&#45;&#45;LAN</title>
<path fill="none" stroke="black" d="M34.6347,-284.019C39.4643,-273.032 45.8043,-258.609 51.2652,-246.186"/>
</g>
<!-- Client -->
<g id="node2" class="node"><title>Client</title>
<polygon fill="none" stroke="black" points="126,-320.388 72,-320.388 72,-284.388 126,-284.388 126,-320.388"/>
<text text-anchor="middle" x="99" y="-298.688" font-family="Times,serif" font-size="14.00">Client</text>
</g>
<!-- Client&#45;&#45;LAN -->
<g id="edge2" class="edge"><title>Client&#45;&#45;LAN</title>
<path fill="none" stroke="black" d="M91.3653,-284.019C86.5357,-273.032 80.1957,-258.609 74.7348,-246.186"/>
</g>
<!-- Router -->
<g id="node3" class="node"><title>Router</title>
<ellipse fill="none" stroke="black" cx="63" cy="-134.593" rx="35.9954" ry="18"/>
<image xlink:href="./images/router.svg" width="20px" height="20px" preserveAspectRatio="xMinYMin meet" x="53" y="-144.593"/>
<text text-anchor="middle" x="63" y="-130.893" font-family="Times,serif" font-size="14.00">Router</text>
</g>
<!-- Internet -->
<g id="node5" class="node"><title>Internet</title>
<ellipse fill="none" stroke="black" cx="63" cy="-40.2964" rx="40.0939" ry="40.0939"/>
<text text-anchor="middle" x="63" y="-36.5964" font-family="Times,serif" font-size="14.00">Internet</text>
</g>
<!-- Router&#45;&#45;Internet -->
<g id="edge4" class="edge"><title>Router&#45;&#45;Internet</title>
<path fill="none" stroke="black" d="M63,-116.233C63,-106.207 63,-93.1622 63,-80.7731"/>
</g>
<!-- LAN&#45;&#45;Router -->
<g id="edge3" class="edge"><title>LAN&#45;&#45;Router</title>
<path fill="none" stroke="black" d="M63,-188.386C63,-176.432 63,-163.005 63,-152.683"/>
</g>
</g>
</svg>
