<?xml version="1.0" encoding="utf-8"?>
<svg viewBox="82 -1 355 250" xmlns="http://www.w3.org/2000/svg">
  <path d="M 88.39 137.663 C 83.758 97.692 100.434 71.712 138.418 59.721 C 164.03 51.635 185.801 41.141 203.729 28.243 C 251.667 -6.245 291.039 -6.245 321.847 28.243 C 331.91 39.506 344.881 46.501 360.758 49.229 C 386.804 53.704 399.309 74.191 398.276 110.683 C 397.902 123.895 406.241 138.886 423.292 155.65 C 441.812 173.86 432.084 195.844 394.108 221.6 C 365.922 240.717 333.497 235.721 296.835 206.61 C 276.648 190.579 252.096 199.074 223.184 232.092 C 202.953 255.195 174.235 250.199 137.028 217.104 C 98.501 182.837 82.288 156.356 88.39 137.663 Z" style="fill: none; stroke: rgb(128, 128, 128); stroke-width: 2;"/>
</svg>