<?xml version="1.0" encoding="UTF-8" standalone="no"?>
<svg
   xmlns:bx="https://boxy-svg.com"
   xmlns:dc="http://purl.org/dc/elements/1.1/"
   xmlns:cc="http://creativecommons.org/ns#"
   xmlns:rdf="http://www.w3.org/1999/02/22-rdf-syntax-ns#"
   xmlns:svg="http://www.w3.org/2000/svg"
   xmlns="http://www.w3.org/2000/svg"
   xmlns:sodipodi="http://sodipodi.sourceforge.net/DTD/sodipodi-0.dtd"
   xmlns:inkscape="http://www.inkscape.org/namespaces/inkscape"
   viewBox="0 0 96 99"
   id="svg2"
   version="1.1"
   inkscape:version="0.91 r13725"
   sodipodi:docname="router.svg">
  <metadata
     id="metadata39">
    <rdf:RDF>
      <cc:Work
         rdf:about="">
        <dc:format>image/svg+xml</dc:format>
        <dc:type
           rdf:resource="http://purl.org/dc/dcmitype/StillImage" />
      </cc:Work>
    </rdf:RDF>
  </metadata>
  <sodipodi:namedview
     pagecolor="#ffffff"
     bordercolor="#666666"
     borderopacity="1"
     objecttolerance="10"
     gridtolerance="10"
     guidetolerance="10"
     inkscape:pageopacity="0"
     inkscape:pageshadow="2"
     inkscape:window-width="3200"
     inkscape:window-height="1747"
     id="namedview37"
     showgrid="false"
     inkscape:snap-global="false"
     inkscape:zoom="2.3838384"
     inkscape:cx="48"
     inkscape:cy="49.5"
     inkscape:window-x="0"
     inkscape:window-y="0"
     inkscape:window-maximized="1"
     inkscape:current-layer="svg2" />
  <defs
     id="defs4">
    <pattern
       id="pattern-0"
       x="0"
       y="0"
       width="20"
       height="20"
       patternUnits="userSpaceOnUse"
       viewBox="0 0 100 100">
      <path
         d="M 0 0 L 50 0 L 50 100 L 0 100 Z"
         style="fill: black;"
         id="path7" />
    </pattern>
  </defs>
  <g
     transform="matrix(1, 0, 0, 1, -172.278809, -46.388004)"
     id="g9">
    <path
       d="M 266.637 95.888 C 266.637 122.439 245.882 143.963 220.279 143.963 C 194.676 143.963 173.921 122.439 173.921 95.888 C 173.921 69.337 194.676 47.813 220.279 47.813 C 245.882 47.813 266.637 69.337 266.637 95.888 Z"
       style="fill: rgb(255, 255, 255); stroke-width: 2; stroke: rgb(125, 125, 125);"
       bx:origin="0.281 0.5"
       id="path11" />
    <g
       transform="matrix(0.448779, 0, 0, 0.462223, 153.642975, 66.756096)"
       id="g13">
      <rect
         x="68"
         y="58"
         width="32"
         height="16"
         style="fill: rgba(152, 150, 150, 0); stroke: rgb(125, 125, 125);"
         id="rect15" />
      <path
         d="M 157.201 41.983 L 173.201 73.983 L 141.201 73.983 L 157.201 41.983 Z"
         style="fill: rgba(152, 150, 150, 0); stroke: rgb(125, 125, 125);"
         transform="matrix(0, 1, -1, 0, 173.983002, -91.201004)"
         bx:shape="triangle 141.201 41.983 32 32 0.5 0 1@0d992b52"
         id="path17" />
    </g>
    <g
       transform="matrix(0, 0.448779, -0.462223, 0, 249.534302, 29.905378)"
       id="g19">
      <rect
         x="68"
         y="58"
         width="32"
         height="16"
         style="fill: rgba(152, 150, 150, 0); stroke: rgb(125, 125, 125);"
         id="rect21" />
      <path
         d="M 157.201 41.983 L 173.201 73.983 L 141.201 73.983 L 157.201 41.983 Z"
         style="fill: rgba(152, 150, 150, 0); stroke: rgb(125, 125, 125);"
         transform="matrix(0, 1, -1, 0, 173.983002, -91.201004)"
         bx:shape="triangle 141.201 41.983 32 32 0.5 0 1@0d992b52"
         id="path23" />
    </g>
    <g
       transform="matrix(0, -0.448779, 0.462223, 0, 189.668152, 163.257004)"
       id="g25">
      <rect
         x="68"
         y="58"
         width="32"
         height="16"
         style="fill: rgba(152, 150, 150, 0); stroke: rgb(125, 125, 125);"
         id="rect27" />
      <path
         d="M 157.201 41.983 L 173.201 73.983 L 141.201 73.983 L 157.201 41.983 Z"
         style="fill: rgba(152, 150, 150, 0); stroke: rgb(125, 125, 125);"
         transform="matrix(0, 1, -1, 0, 173.983002, -91.201004)"
         bx:shape="triangle 141.201 41.983 32 32 0.5 0 1@0d992b52"
         id="path29" />
    </g>
    <g
       transform="matrix(-0.448779, 0, 0, -0.462223, 285.129791, 127.661522)"
       id="g31">
      <rect
         x="68"
         y="58"
         width="32"
         height="16"
         style="fill: rgba(152, 150, 150, 0); stroke: rgb(125, 125, 125);"
         id="rect33" />
      <path
         d="M 157.201 41.983 L 173.201 73.983 L 141.201 73.983 L 157.201 41.983 Z"
         style="fill: rgba(152, 150, 150, 0); stroke: rgb(125, 125, 125);"
         transform="matrix(0, 1, -1, 0, 173.983002, -91.201004)"
         bx:shape="triangle 141.201 41.983 32 32 0.5 0 1@0d992b52"
         id="path35" />
    </g>
  </g>
</svg>
